<?xml version="1.0" encoding="utf-8"?>
<!-- Generator: Adobe Illustrator 17.1.0, SVG Export Plug-In . SVG Version: 6.00 Build 0)  -->
<!DOCTYPE svg PUBLIC "-//W3C//DTD SVG 1.1//EN" "http://www.w3.org/Graphics/SVG/1.1/DTD/svg11.dtd">
<svg version="1.1" id="Layer_1" xmlns="http://www.w3.org/2000/svg" xmlns:xlink="http://www.w3.org/1999/xlink" x="0px" y="0px"
	 viewBox="0 0 1000 600" enable-background="new 0 0 1000 600" xml:space="preserve">
<g>
	<g>
		<g>
			<path fill="#CD8351" stroke="#4D88B8" stroke-miterlimit="10" d="M87.3,300c0-110.5,89.5-200,200-200c110.5,0,200,89.5,200,200
				c0,110.5-89.5,200-200,200C176.9,500,87.3,410.5,87.3,300z"/>
		</g>
		<path fill="#A9A69A" d="M404.8,392.1c0,1.6,0.8,9.9-3.2,9.9H171.7c-4,0-4.9-8.3-4.9-9.9v-45c0-1.6,22.3-25.4,26.3-25.4l187.2-0.3
			c4,0,24.4,24.1,24.4,25.7V392.1z"/>
		<line fill="none" stroke="#4F88B7" stroke-miterlimit="10" x1="166.8" y1="353.5" x2="404.8" y2="353.5"/>
		<path fill="none" stroke="#4F88B7" stroke-miterlimit="10" d="M286,357.3"/>
		<path fill="none" stroke="#4F88B7" stroke-miterlimit="10" d="M286,351"/>
		<line fill="none" stroke="#4F88B7" stroke-miterlimit="10" x1="182.8" y1="374.5" x2="232.8" y2="374.5"/>
		<path fill="#A9A69A" d="M380.9,299.5c0,7.8-6.3,14.1-14.1,14.1H206c-7.8,0-14.1-6.3-14.1-14.1v-98.6c0-7.8,6.3-14.1,14.1-14.1
			h160.9c7.8,0,14.1,6.3,14.1,14.1V299.5z"/>
		<line fill="none" stroke="#4F88B7" stroke-miterlimit="10" x1="182.8" y1="390.5" x2="232.8" y2="390.5"/>
		<path fill="#AACDE5" stroke="#4F88B7" stroke-miterlimit="10" d="M357.1,277.4c0,13.3-9,14.4-20.2,14.4H235.9
			c-11.1,0-20.2-1.1-20.2-14.4v-52.4c0-13.3,9-16.7,20.2-16.7h100.9c11.2,0,20.2,3.4,20.2,16.7V277.4z"/>
	</g>
	<g>
		<circle fill="#AACDE5" stroke="#4E88B7" stroke-miterlimit="10" cx="712.7" cy="300" r="200"/>
		<path fill="#4E88B7" stroke="#4E88B7" stroke-miterlimit="10" d="M744.3,314.7c-3.4,1.5-6.7,3.4-9.9,5.8c-3.2,2.4-6.4,5-9.7,7.8
			c-3.3,2.8-6.6,5.8-10.1,9c-3.5,3.2-7.3,6.3-11.3,9.3c-4,3.1-8.5,6-13.2,8.8c-4.8,2.8-10.1,5.3-15.8,7.4c-5.8,2.1-12.1,3.8-19.1,5
			s-14.7,1.9-23.1,1.9c-9.3,0-17.8-1.9-25.3-5.7c-7.5-3.8-13.9-8.9-19.3-15.3c-5.3-6.4-9.4-13.8-12.3-22.3
			c-2.9-8.5-4.3-17.4-4.3-26.7c0-6.4,0.7-13.2,2.1-20.5c1.4-7.3,3.4-14.7,6-22.3c2.6-7.6,5.8-15.1,9.5-22.7
			c3.7-7.5,8-14.8,12.7-21.7c4.7-6.9,10-13.3,15.6-19.3c5.7-5.9,11.7-11.1,18.2-15.5c6.4-4.4,13.2-7.8,20.4-10.3
			c7.1-2.5,14.5-3.7,22.2-3.7c5,0,10,0.9,15.2,2.6c5.1,1.8,9.7,4.5,13.8,8.2c4.1,3.7,7.4,8.3,10,13.9c2.6,5.6,3.9,12.2,3.9,19.8
			c0,5.1-0.8,10.3-2.4,15.5c-1.6,5.2-3.9,10.2-6.7,15.1c-2.8,4.8-6.2,9.3-10,13.6c-3.8,4.2-8,7.9-12.4,11c-4.4,3.1-9,5.5-13.8,7.3
			c-4.8,1.8-9.6,2.7-14.3,2.7c-6.3,0-11-0.8-14.1-2.5c-3.1-1.7-4.7-4.1-4.7-7.3c0-0.6,0-1.2-0.1-2c0-0.8-0.1-1.6-0.1-2.4
			c0-1.2,0.1-2.5,0.2-3.9c0.1-1.3,0.4-2.6,0.8-3.7c0.4-1.1,1-2,1.8-2.7c0.8-0.7,1.9-1,3.3-1c0.8,0,1.6,0.1,2.2,0.4
			c0.6,0.2,1.3,0.5,2.1,0.8c0.8,0.3,1.7,0.5,2.8,0.8c1.1,0.2,2.4,0.4,4.1,0.4c4.4,0,8.9-1,13.4-2.9c4.5-1.9,8.6-4.7,12.3-8.2
			s6.6-7.7,8.9-12.6c2.3-4.9,3.5-10.3,3.5-16.1c0-3.1-0.4-6.1-1.2-8.9c-0.8-2.8-2.2-5.3-4-7.4c-1.9-2.1-4.3-3.8-7.2-5.1
			c-2.9-1.3-6.5-1.9-10.7-1.9c-5,0-9.8,1.1-14.6,3.3c-4.7,2.2-9.3,5.1-13.7,8.9c-4.4,3.7-8.5,8.2-12.4,13.3
			c-3.9,5.1-7.5,10.6-10.9,16.5c-3.3,5.9-6.3,11.9-9,18.3c-2.7,6.3-4.9,12.7-6.8,19c-1.9,6.3-3.3,12.4-4.3,18.3
			c-1,5.9-1.5,11.4-1.5,16.4c0,7.1,0.9,13.3,2.6,18.6s4.3,9.7,7.5,13.2c3.3,3.5,7.2,6.2,11.9,7.9c4.7,1.7,10,2.6,15.9,2.6
			c7.3,0,14.2-0.9,20.5-2.8c6.3-1.8,12.4-4.2,18.1-7.2c5.7-3,11.3-6.3,16.7-10.1c5.4-3.7,10.7-7.5,16.1-11.3
			c5.4-3.8,10.8-7.4,16.4-10.8c5.6-3.4,11.5-6.3,17.7-8.7V314.7z"/>
		<path fill="#CD8351" d="M677.1,289.4c3.4-1.5,6.7-3.4,9.9-5.8c3.2-2.4,6.4-5,9.7-7.8c3.3-2.8,6.6-5.8,10.1-9
			c3.5-3.2,7.3-6.3,11.3-9.3c4-3.1,8.5-6,13.2-8.8s10.1-5.3,15.8-7.4c5.8-2.1,12.1-3.8,19.1-5c7-1.2,14.7-1.9,23.1-1.9
			c9.3,0,17.8,1.9,25.3,5.7c7.5,3.8,13.9,8.9,19.3,15.3c5.3,6.4,9.4,13.8,12.3,22.3c2.9,8.5,4.3,17.4,4.3,26.7
			c0,6.4-0.7,13.2-2.1,20.5c-1.4,7.3-3.4,14.7-6,22.3c-2.6,7.6-5.8,15.1-9.5,22.7c-3.7,7.5-8,14.8-12.7,21.7
			c-4.7,6.9-10,13.3-15.6,19.3c-5.7,5.9-11.7,11.1-18.2,15.5c-6.4,4.4-13.2,7.8-20.4,10.3c-7.1,2.5-14.5,3.7-22.2,3.7
			c-5,0-10-0.9-15.2-2.6c-5.1-1.8-9.7-4.5-13.8-8.2c-4.1-3.7-7.4-8.3-10-13.9c-2.6-5.6-3.9-12.2-3.9-19.8c0-5.1,0.8-10.3,2.4-15.5
			c1.6-5.2,3.9-10.2,6.7-15.1c2.8-4.8,6.2-9.3,10-13.6c3.8-4.2,8-7.9,12.4-11c4.4-3.1,9-5.5,13.8-7.3c4.8-1.8,9.6-2.7,14.3-2.7
			c6.3,0,11,0.8,14.1,2.5c3.1,1.7,4.7,4.1,4.7,7.3c0,0.6,0,1.2,0.1,2c0,0.8,0.1,1.6,0.1,2.4c0,1.2-0.1,2.5-0.2,3.9
			c-0.1,1.3-0.4,2.6-0.8,3.7c-0.4,1.1-1,2-1.8,2.7c-0.8,0.7-1.9,1-3.3,1c-0.8,0-1.6-0.1-2.2-0.4c-0.6-0.2-1.3-0.5-2.1-0.8
			c-0.8-0.3-1.7-0.5-2.8-0.8c-1.1-0.2-2.4-0.4-4.1-0.4c-4.4,0-8.9,1-13.4,2.9c-4.5,1.9-8.6,4.7-12.3,8.2c-3.6,3.5-6.6,7.7-8.9,12.6
			c-2.3,4.9-3.5,10.3-3.5,16.1c0,3.1,0.4,6.1,1.2,8.9c0.8,2.8,2.2,5.3,4,7.4c1.9,2.1,4.3,3.8,7.2,5.1c2.9,1.3,6.5,1.9,10.7,1.9
			c5,0,9.8-1.1,14.6-3.3c4.7-2.2,9.3-5.1,13.7-8.9c4.4-3.7,8.5-8.2,12.4-13.3c3.9-5.1,7.5-10.6,10.9-16.5c3.3-5.9,6.3-11.9,9-18.3
			c2.7-6.3,4.9-12.7,6.8-19c1.9-6.3,3.3-12.4,4.3-18.3c1-5.9,1.5-11.4,1.5-16.4c0-7.1-0.9-13.3-2.6-18.6c-1.8-5.3-4.3-9.7-7.5-13.2
			c-3.3-3.5-7.2-6.2-11.9-7.9c-4.7-1.7-10-2.6-15.9-2.6c-7.3,0-14.2,0.9-20.5,2.8c-6.3,1.8-12.4,4.2-18.1,7.2
			c-5.7,3-11.3,6.3-16.7,10.1c-5.4,3.7-10.7,7.5-16.1,11.3c-5.4,3.8-10.8,7.4-16.4,10.8c-5.6,3.4-11.5,6.3-17.7,8.7V289.4z"/>
	</g>
</g>
</svg>
