<?xml version="1.0" encoding="utf-8"?>
<!-- Generator: Adobe Illustrator 17.1.0, SVG Export Plug-In . SVG Version: 6.00 Build 0)  -->
<!DOCTYPE svg PUBLIC "-//W3C//DTD SVG 1.1//EN" "http://www.w3.org/Graphics/SVG/1.1/DTD/svg11.dtd">
<svg version="1.1" id="Layer_1" xmlns="http://www.w3.org/2000/svg" xmlns:xlink="http://www.w3.org/1999/xlink" x="0px" y="0px"
	 viewBox="0 0 397 130" enable-background="new 0 0 397 130" xml:space="preserve">
<circle fill="#F4F4F4" cx="167.3" cy="95.3" r="7.9"/>
<path fill="#F4F4F4" d="M61.5,100.4c3.5,2.2,7.4,3.6,11.8,4.3c4.4,0.7,9,0.4,13.9-0.8c6.8-1.7,12.6-4.6,16.8-8.8
	c0.3-0.3,1.1-0.6,1.1-0.9v-0.3l3.3-4.2c1.7-2.7,2.8-5.6,3.5-8.7l-14.4-0.4c-0.4,2.7-1.8,5.2-4.2,7.4c-2.4,2.2-5.1,3.7-8.2,4.4
	c-2,0.5-4.1,0.6-6.1,0.4c-2-0.2-4-0.8-5.8-1.8c-1.8-1-3.4-2.3-4.8-3.9c-1.4-1.6-2.5-3.8-3.3-6.1l35.6-8.9H46.2c0,3,0.4,5.6,1.1,8.3
	c1,4.2,2.8,8.1,5.2,11.5C55,95.3,58,98.2,61.5,100.4z"/>
<path fill="#F4F4F4" d="M105,94v9h52V92h-35.4l16.7-20h-15.8l-14.2,17.4C107.3,91,106,92.6,105,94z"/>
<path fill="#F4F4F4" d="M105,102.8v0.3c1-1.5,2.5-3,3.5-4.6L105,102.8z"/>
<path fill="#F4F4F4" d="M173.1,83.3c1.5,4,3.5,7.4,6.2,10.4c2.6,3,5.8,5.3,9.4,7c3.6,1.7,7.6,2.5,11.9,2.5c4.4,0,8.6-1,12.5-3.1
	c3.9-2,7-5.1,9.4-9.1l0.4,4.3c0.4,2.3,1.4,4.1,3.1,5.4c1.6,1.3,3.9,2,6.9,2c2,0,4.5-0.3,7.4-0.8c-0.1,0-0.2,0-0.2,0V88.3
	c0,0,0.2,0,0.2,0c-1.5-0.1-2.6-0.5-3.2-1.2c-0.6-0.7-1-1.9-1-3.6V70h-16v8.9c0,1.5-1.3,2.9-2.4,4.2c-1.1,1.3-2.3,2.4-3.7,3.4
	c-1.4,1-2.8,1.7-4.4,2.2c-1.6,0.5-3.1,0.8-4.7,0.8c-2.5,0-4.8-0.5-6.9-1.4c-2.1-1-4-2.3-5.5-4c-1.6-1.7-2.8-3.6-3.7-5.9
	c-0.9-2.2-1.3-4.8-1.3-7.5c0-0.2,0,0.3,0-0.7h-16.6c0,0,0,0.3,0,0.4C170.9,74.9,171.6,79.4,173.1,83.3z"/>
<path fill="#F4F4F4" d="M315,87.3c0,2.8,0.5,5.2,1.4,7.1c0.9,2,2.1,3.6,3.6,4.8c1.5,1.2,3.2,2.1,5.2,2.7c2,0.6,4.1,0.8,6.3,0.8
	c3.4,0,6.7-0.5,9.9-1.4c3.2-1,5.8-1.9,8-2.9l-3.2-12.7c-1,0.4-2.2,0.9-3.8,1.4c-1.6,0.6-3.2,0.8-4.9,0.8s-2.8-0.5-4-1.4
	c-1.2-0.9-1.4-2.5-1.4-4.7V70h-17V87.3z"/>
<path fill="#F4F4F4" d="M242.7,87.1c-0.6,0.7-1.6,1.1-3,1.2c0.1,0,0.3,0,0.3,0V102c0,0-0.4,0-0.5,0c3,0.5,5.3,0.8,7.4,0.8
	c3-0.1,5.2-0.8,6.8-2c1.6-1.3,2.6-3.1,3-5.4l0.3-4.3c2.3,4,5.4,7,9.4,9.1c3.9,2,8.1,3.1,12.5,3.1c4.3,0,8.3-0.8,11.9-2.5
	c3.6-1.7,6.8-4,9.4-7c2.6-3,4.7-6.4,6.2-10.4c1.5-4,2.2-8.4,2.2-12.9c0-0.1,0-0.4,0-0.4h-16.6c0,1,0,0.5,0,0.7
	c0,2.6-0.4,5.2-1.3,7.4c-0.9,2.2-2.1,4.2-3.7,5.9c-1.6,1.7-3.4,3-5.5,4c-2.1,1-4.4,1.4-6.9,1.4c-1.5,0-3.1-0.3-4.7-0.8
	c-1.6-0.5-3.1-1.3-4.4-2.2c-1.4-1-2.3-2.1-3.4-3.4c-1.1-1.3-2.2-2.7-2.2-4.2V70h-16v13.5C244,85.2,243.4,86.4,242.7,87.1z"/>
<path fill="#FFFFFF" d="M112.2,69.3c0-0.7-0.1-1.4-0.3-2.3c-0.2-0.9-0.4-1.9-0.7-2.9c-1-4.1-2.7-7.9-5.1-11.3
	c-2.4-3.5-5.3-6.3-8.8-8.5c-3.5-2.2-7.4-3.7-11.7-4.4c-4.3-0.7-9-0.5-14,0.7c-5,1.2-9.2,3.2-12.8,5.9c-3.6,2.7-6.4,5.8-8.5,9.4
	c-2.1,3.6-3.4,7.4-3.9,11.6C46.3,69,46.2,71,46.2,72h54.3L112.2,69.3z M62.3,71c-0.4-2.3-0.4-4.5,0-6.6c0.4-2.1,1.2-4,2.3-5.6
	c1.1-1.7,2.4-3.1,4.1-4.3c1.6-1.2,3.5-2,5.6-2.6c4.3-1.1,8.2-0.6,11.9,1.4c3.7,2,6.3,5.3,7.8,9.8L62.3,71z"/>
<polygon fill="#FFFFFF" points="157,50.6 157,40 106,40 106,52 139.5,52 122.6,72 138.4,72 "/>
<path fill="#FFFFFF" d="M188.6,63.5c0.8-2.3,1.9-4.3,3.4-6.1c1.4-1.8,3.2-3.2,5.2-4.2c2-1,4.3-1.5,6.7-1.5c3.4,0,6.5,1.2,9.6,3.5
	c3.1,2.3,5.6,5.2,6.6,8.8V70h16V14h-16v36.1c-2-3.6-4.9-6.5-8.7-8.8c-3.7-2.2-7.8-3.4-12.4-3.4c-4.1,0-7.8,0.8-11.3,2.5
	c-3.4,1.7-6.4,4-8.9,7c-2.5,3-4.4,6.2-5.8,10.2c-1.4,3.9-2.1,8.3-2.1,12.3h16.6C187.5,68,187.9,65.7,188.6,63.5z"/>
<path fill="#FFFFFF" d="M300.8,47.4c1,1.1,1.8,2.6,2.6,3.6H315v19h17V51h13V38h-13V18h-17v20h-27.9c1.6,1,3.2,1.3,4.7,2.1
	C295.3,41.8,298.3,44.4,300.8,47.4z"/>
<path fill="#FFFFFF" d="M260,63.9c1-3.5,3.3-6.4,6.3-8.8c3.1-2.3,6.1-3.5,9.5-3.5c2.4,0,4.5,0.5,6.6,1.6c2,1,3.7,2.5,5.2,4.3
	c1.4,1.8,2.5,3.7,3.3,6c0.7,2.1,1.1,4.5,1.2,6.5h16.6c0-4-0.7-8.6-2.1-12.4c-0.9-2.4-1.9-4.6-3.2-6.6h-2.2l-19-13h5
	c-2.1,0-4.3-0.4-6.5-0.4c-4.6,0-8.4,1.3-12.2,3.6c-3.7,2.2-6.4,5.4-8.4,9V14h-16v56h16V63.9z"/>
<path fill="#FFFFFF" d="M301.2,51h2.2c-0.8-1-1.7-2.4-2.6-3.6c-2.5-3-5.4-5.6-8.9-7.3c-1.5-0.7-3.1-1.1-4.7-2.1h-5L301.2,51z"/>
</svg>
