<?xml version="1.0" encoding="utf-8"?>
<!-- Generator: Adobe Illustrator 18.1.0, SVG Export Plug-In . SVG Version: 6.00 Build 0)  -->
<svg version="1.1" id="Layer_1" xmlns="http://www.w3.org/2000/svg" xmlns:xlink="http://www.w3.org/1999/xlink" x="0px" y="0px"
	 viewBox="0 0 63.5 59.3" enable-background="new 0 0 63.5 59.3" xml:space="preserve">
<g>
	<g>
		<path fill="#444444" d="M31.8,58.1c7,0,14,0,21,0c0.8,0,1.5-0.7,1.5-1.5c0-8,0-16,0-24c0-1.9-3-1.9-3,0c0,8,0,16,0,24
			c0.5-0.5,1-1,1.5-1.5c-7,0-14,0-21,0C29.8,55.1,29.8,58.1,31.8,58.1L31.8,58.1z"/>
	</g>
</g>
<g>
	<g>
		<path fill="#444444" d="M9.2,32.6c0,8,0,16,0,24c0,0.8,0.7,1.5,1.5,1.5c7,0,14,0,21,0c1.9,0,1.9-3,0-3c-7,0-14,0-21,0
			c0.5,0.5,1,1,1.5,1.5c0-8,0-16,0-24C12.2,30.7,9.2,30.7,9.2,32.6L9.2,32.6z"/>
	</g>
</g>
<g>
	<g>
		<path fill="#444444" d="M3.8,32.7c9.7-9.7,19.3-19.3,29-29c-0.7,0-1.4,0-2.1,0c9.7,9.7,19.3,19.3,29,29c1.4,1.4,3.5-0.8,2.1-2.1
			c-9.7-9.7-19.3-19.3-29-29c-0.6-0.6-1.5-0.6-2.1,0c-9.7,9.7-19.3,19.3-29,29C0.3,31.9,2.4,34.1,3.8,32.7L3.8,32.7z"/>
	</g>
</g>
<g>
	<g>
		<path fill="#444444" d="M39.8,11.1c3.3,0,6.7,0,10,0c-0.5-0.5-1-1-1.5-1.5c0,3.3,0,6.7,0,10c0,1.9,3,1.9,3,0c0-3.3,0-6.7,0-10
			c0-0.8-0.7-1.5-1.5-1.5c-3.3,0-6.7,0-10,0C37.8,8.1,37.8,11.1,39.8,11.1L39.8,11.1z"/>
	</g>
</g>
<g>
	<g>
		<path fill="#444444" d="M2.8,33.1c19.3,0,38.7,0,58,0c1.9,0,1.9-3,0-3c-19.3,0-38.7,0-58,0C0.8,30.1,0.8,33.1,2.8,33.1L2.8,33.1z"
			/>
	</g>
</g>
</svg>
