<?xml version="1.0" encoding="utf-8"?>
<!-- Generator: Adobe Illustrator 17.1.0, SVG Export Plug-In . SVG Version: 6.00 Build 0)  -->
<!DOCTYPE svg PUBLIC "-//W3C//DTD SVG 1.1//EN" "http://www.w3.org/Graphics/SVG/1.1/DTD/svg11.dtd">
<svg version="1.1" id="Layer_1" xmlns="http://www.w3.org/2000/svg" xmlns:xlink="http://www.w3.org/1999/xlink" x="0px" y="0px"
	 viewBox="0 0 157.4 92.8" enable-background="new 0 0 157.4 92.8" xml:space="preserve">
<path fill="none" stroke="#B3E3F9" stroke-width="2" stroke-miterlimit="10" d="M33.2,32.4C17.5,32.4,4.8,45.2,4.8,61
	c0,10,5.1,18.7,12.7,23.9c0.4,0.3,0.9,0.5,1.3,0.8c0.1,0,0.2,0.1,0.2,0.1c0,0,0,0,0,0c4.1,2.4,9,3.8,14.1,3.8
	c15.7,0,28.4-12.8,28.4-28.6S48.8,32.4,33.2,32.4z"/>
<g>
	<g>
		<path d="M152.5,61c-0.1,12.4-8.1,23.3-19.9,27c-11.9,3.7-24.8-1.6-31.5-11.8c-6.8-10.5-5.4-24.5,2.7-33.8
			c8.1-9.4,21.9-11.9,33-6.6C146.5,40.3,152.4,50.4,152.5,61c0,0.6,1,0.6,1,0c-0.1-10.6-5.8-20.3-15.1-25.6
			c-9.3-5.3-21-4.5-29.9,1.4c-8.9,5.9-13.6,16.5-12.7,27c0.9,10.5,7.8,19.7,17.3,23.9c8.9,4,19.4,2.8,27.5-2.5
			c8.1-5.3,12.7-14.6,12.8-24.2C153.5,60.3,152.5,60.3,152.5,61z"/>
	</g>
</g>
<g>
	<g>
		<path fill="#82303A" d="M142.6,61c-0.2,9.9-8,17.9-17.9,18.1c-10,0.2-17.8-8.4-17.9-18.1c-0.2-9.9,8.2-17.9,17.9-18.1
			C134.6,42.7,142.4,51.3,142.6,61c0,0.6,1,0.6,1,0c-0.2-10.5-8.4-18.9-18.9-19.1c-10.5-0.2-18.8,8.9-18.9,19.1
			c-0.2,10.5,8.7,18.9,18.9,19.1c10.5,0.2,18.8-8.9,18.9-19.1C143.6,60.3,142.6,60.3,142.6,61z"/>
	</g>
</g>
<g>
	<g>
		<path fill="#82303A" d="M32.3,61.2c12.3,0,24.6,0,36.9,0c0.3,0,0.3-0.5,0-0.5c-12.3,0-24.6,0-36.9,0C32,60.7,32,61.2,32.3,61.2
			L32.3,61.2z"/>
	</g>
</g>
<g>
	<g>
		<path d="M76,61.4c-0.2,3.9-3,6.7-6.8,6.9c-3.9,0.2-6.7-3.3-6.8-6.9c-0.2-3.9,3.2-6.7,6.8-6.9C73.1,54.3,75.9,57.8,76,61.4
			c0,0.3,0.5,0.3,0.5,0c-0.2-4.2-3.2-7.2-7.3-7.4c-4.2-0.2-7.2,3.6-7.3,7.4c-0.2,4.1,3.5,7.2,7.3,7.4c4.2,0.2,7.2-3.6,7.3-7.4
			C76.6,61,76.1,61,76,61.4z"/>
	</g>
</g>
<g>
	<g>
		<path d="M131.5,61.4c-0.2,3.9-3,6.7-6.8,6.9c-3.9,0.2-6.7-3.3-6.8-6.9c-0.2-3.9,3.2-6.7,6.8-6.9C128.5,54.3,131.3,57.8,131.5,61.4
			c0,0.3,0.5,0.3,0.5,0c-0.2-4.2-3.2-7.2-7.3-7.4c-4.2-0.2-7.2,3.6-7.3,7.4c-0.2,4.1,3.5,7.2,7.3,7.4c4.2,0.2,7.2-3.6,7.3-7.4
			C132,61,131.5,61,131.5,61.4z"/>
	</g>
</g>
<g>
	<g>
		<path fill="#82303A" d="M39.8,61c-0.2,3.7-2.9,6.5-6.6,6.7c-3.7,0.2-6.4-3.2-6.6-6.7c-0.2-3.7,3.1-6.5,6.6-6.7
			C36.9,54.1,39.6,57.5,39.8,61c0,0.6,1,0.6,1,0c-0.2-4.3-3.3-7.4-7.6-7.7c-4.3-0.2-7.4,3.7-7.6,7.7c-0.2,4.3,3.6,7.5,7.6,7.7
			c4.3,0.2,7.4-3.7,7.6-7.7C40.8,60.3,39.8,60.3,39.8,61z"/>
	</g>
</g>
<path fill="none" stroke="#000000" stroke-width="0.5" stroke-miterlimit="10" d="M31.8,26.1C51.5,39.3,88.4,22,98.2,17
	c6-3,17.4-9.7,21.7-4.6c7.4,8.9,4.8,22.4,4.8,41.8"/>
<path fill="#82303A" d="M40.4,31.1c-0.3-0.1-0.6-0.1-0.8-0.3c-0.2-0.1-0.4-0.3-0.6-0.5l0.5-0.4c0.1,0.2,0.3,0.3,0.5,0.4
	c0.2,0.1,0.4,0.1,0.5,0.2c0.2,0,0.3,0,0.5,0c0.2,0,0.3-0.1,0.5-0.2c0.2-0.1,0.3-0.2,0.4-0.4c0.1-0.2,0.2-0.3,0.2-0.5l1.5-7.6
	l0.7,0.1l-1.5,7.6c-0.1,0.3-0.2,0.6-0.3,0.8c-0.2,0.2-0.4,0.4-0.6,0.6c-0.2,0.1-0.5,0.2-0.7,0.3C40.9,31.2,40.6,31.2,40.4,31.1z
	 M43.8,20.1l0.2-1.3l0.7,0.1l-0.2,1.3L43.8,20.1z"/>
<path fill="#82303A" d="M48.8,29.8c-0.5,0-1-0.1-1.4-0.3c-0.4-0.2-0.8-0.5-1.1-0.9c-0.3-0.4-0.5-0.8-0.7-1.2
	c-0.2-0.5-0.2-0.9-0.2-1.5c0-0.5,0.1-1,0.3-1.5c0.2-0.5,0.5-0.8,0.8-1.2c0.3-0.3,0.7-0.6,1.2-0.8c0.4-0.2,0.9-0.3,1.4-0.3
	c0.5,0,1,0.1,1.4,0.3c0.4,0.2,0.8,0.5,1.1,0.9c0.3,0.4,0.5,0.8,0.7,1.2c0.2,0.5,0.2,1,0.2,1.5c0,0.5-0.1,1-0.3,1.4
	c-0.2,0.5-0.5,0.8-0.8,1.2c-0.3,0.3-0.7,0.6-1.2,0.8C49.8,29.8,49.3,29.8,48.8,29.8z M46.1,26c0,0.4,0,0.8,0.2,1.2
	c0.1,0.4,0.3,0.7,0.6,1c0.2,0.3,0.5,0.5,0.9,0.7c0.3,0.2,0.7,0.3,1.1,0.3c0.4,0,0.8-0.1,1.1-0.2c0.3-0.2,0.7-0.4,0.9-0.7
	c0.3-0.3,0.5-0.6,0.6-1c0.2-0.4,0.3-0.8,0.3-1.2c0-0.4-0.1-0.8-0.2-1.2c-0.1-0.4-0.3-0.7-0.6-1c-0.2-0.3-0.5-0.5-0.9-0.7
	c-0.3-0.2-0.7-0.3-1.1-0.3c-0.4,0-0.7,0.1-1.1,0.2c-0.3,0.2-0.7,0.4-0.9,0.7c-0.3,0.3-0.5,0.6-0.6,1C46.2,25.1,46.1,25.6,46.1,26z"
	/>
<path fill="#82303A" d="M57.5,22.6c-0.7,0.1-1.2,0.3-1.7,0.7c-0.4,0.4-0.7,1-0.9,1.6l0.4,4.5l-0.7,0.1L54,22.3l0.7-0.1l0.2,1.8
	c0.2-0.5,0.5-1,0.9-1.3c0.4-0.4,0.8-0.6,1.3-0.7c0.1,0,0.2,0,0.2,0c0.1,0,0.1,0,0.2,0L57.5,22.6z"/>
<path fill="#82303A" d="M62.5,28.6c-0.5,0.1-1,0.1-1.4,0c-0.5-0.1-0.9-0.3-1.2-0.6c-0.4-0.3-0.7-0.6-0.9-1.1
	c-0.3-0.4-0.4-0.9-0.5-1.3c-0.1-0.5-0.1-1,0-1.5c0.1-0.5,0.2-0.9,0.5-1.3c0.2-0.4,0.5-0.7,0.9-1c0.4-0.3,0.8-0.5,1.3-0.6
	c0.3-0.1,0.6-0.1,0.9,0c0.3,0,0.6,0.1,0.8,0.2c0.3,0.1,0.5,0.2,0.7,0.4c0.2,0.2,0.4,0.4,0.6,0.6l-0.8-4.5l0.7-0.1l1.7,9.1
	c0,0.2,0.2,0.3,0.4,0.3l0.1,0.6c0,0-0.1,0-0.1,0c0,0-0.1,0-0.1,0c-0.2,0-0.4,0-0.5-0.1c-0.1-0.1-0.2-0.2-0.3-0.4l-0.2-0.8
	c-0.2,0.5-0.5,1-1,1.4C63.5,28.3,63,28.5,62.5,28.6z M62.5,28c0.2,0,0.5-0.1,0.8-0.3c0.3-0.2,0.5-0.3,0.7-0.6
	c0.2-0.2,0.4-0.5,0.5-0.7c0.1-0.3,0.2-0.5,0.2-0.8l-0.4-2.4c-0.1-0.2-0.3-0.5-0.6-0.7c-0.2-0.2-0.5-0.4-0.8-0.5
	c-0.3-0.1-0.6-0.2-0.8-0.3c-0.3,0-0.6,0-0.8,0c-0.4,0.1-0.8,0.2-1.1,0.5c-0.3,0.2-0.5,0.5-0.7,0.9c-0.2,0.3-0.3,0.7-0.4,1.1
	c-0.1,0.4,0,0.8,0,1.2c0.1,0.4,0.2,0.8,0.4,1.1c0.2,0.3,0.5,0.6,0.8,0.9c0.3,0.2,0.7,0.4,1,0.5C61.7,28,62.1,28,62.5,28z"/>
<path fill="#82303A" d="M70.2,26.8c-0.3,0.1-0.6,0.1-1,0.1c-0.3,0-0.6-0.1-0.9-0.3c-0.3-0.1-0.5-0.3-0.7-0.6
	c-0.2-0.2-0.3-0.5-0.4-0.8c-0.1-0.3-0.1-0.6,0-0.9c0.1-0.3,0.2-0.6,0.4-0.8c0.2-0.3,0.5-0.5,0.8-0.7c0.3-0.2,0.7-0.4,1.1-0.5
	c0.4-0.1,0.8-0.2,1.2-0.2c0.4,0,0.8,0,1.1,0l-0.2-0.7c-0.2-0.7-0.5-1.1-1-1.4c-0.5-0.3-1.1-0.3-1.7-0.2c-0.3,0.1-0.7,0.3-1,0.5
	c-0.3,0.3-0.7,0.6-1,0.9L66.6,21c0.7-0.9,1.5-1.4,2.3-1.6c0.8-0.2,1.6-0.2,2.2,0.2c0.6,0.4,1.1,1,1.3,1.8l1,3.4
	c0.1,0.2,0.2,0.3,0.4,0.3l0.2,0.6c0,0-0.1,0-0.1,0c0,0-0.1,0-0.1,0c-0.2,0-0.3,0-0.5,0c-0.2-0.1-0.3-0.2-0.3-0.4l-0.2-0.6
	c-0.2,0.5-0.5,1-1,1.3C71.3,26.4,70.8,26.7,70.2,26.8z M70.2,26.3c0.5-0.1,1-0.4,1.4-0.7c0.4-0.3,0.6-0.7,0.8-1.1
	c0.1-0.2,0.1-0.4,0.1-0.6L72,22.7c-0.8-0.1-1.5,0-2.2,0.2c-0.7,0.2-1.2,0.5-1.6,0.9c-0.3,0.4-0.5,0.8-0.3,1.3
	c0.1,0.2,0.2,0.4,0.3,0.6c0.1,0.2,0.3,0.3,0.5,0.4c0.2,0.1,0.4,0.2,0.7,0.2C69.7,26.4,69.9,26.3,70.2,26.3z"/>
<path fill="#82303A" d="M81.6,23l-0.7,0.2l-1.4-3.8c-0.3-0.9-0.7-1.5-1.1-1.8c-0.4-0.3-0.9-0.4-1.4-0.2c-0.3,0.1-0.6,0.3-0.8,0.5
	c-0.2,0.2-0.5,0.4-0.6,0.7c-0.2,0.3-0.3,0.6-0.4,0.9c-0.1,0.3-0.1,0.7-0.1,1l1.5,4.3L76,25l-2.4-6.9l0.6-0.2l0.6,1.6
	c0-0.3,0.1-0.6,0.3-0.9c0.1-0.3,0.3-0.6,0.5-0.8c0.2-0.2,0.4-0.5,0.7-0.6c0.3-0.2,0.6-0.3,0.9-0.4c0.7-0.3,1.4-0.2,1.9,0.2
	c0.5,0.4,0.9,1.1,1.3,2.1L81.6,23z"/>
<path fill="#82303A" d="M90.4,19.5c-0.5,0.2-1.1,0.3-1.7,0.2c-0.6-0.1-1.1-0.3-1.5-0.6l0.6,1.3l-0.6,0.3l-4.2-9.4l0.6-0.3l1.8,4.1
	c0.1-0.6,0.3-1.1,0.6-1.6c0.3-0.5,0.7-0.8,1.3-1.1c0.5-0.2,0.9-0.3,1.4-0.3c0.5,0,0.9,0.2,1.3,0.4c0.4,0.2,0.8,0.5,1.1,0.8
	c0.3,0.4,0.6,0.7,0.8,1.2c0.2,0.5,0.3,0.9,0.3,1.4c0,0.5,0,1-0.2,1.4c-0.1,0.4-0.4,0.8-0.7,1.2C91.3,19,90.9,19.3,90.4,19.5z
	 M90.1,19c0.4-0.2,0.7-0.4,1-0.7c0.3-0.3,0.4-0.6,0.5-1c0.1-0.4,0.2-0.8,0.1-1.2c0-0.4-0.1-0.8-0.3-1.1c-0.2-0.4-0.4-0.7-0.7-1
	c-0.3-0.3-0.6-0.5-0.9-0.7c-0.3-0.2-0.7-0.3-1.1-0.3c-0.4,0-0.8,0-1.1,0.2c-0.3,0.1-0.5,0.3-0.7,0.5c-0.2,0.2-0.4,0.4-0.5,0.7
	c-0.1,0.3-0.2,0.5-0.3,0.8c-0.1,0.3-0.1,0.6-0.1,0.8l1,2.2c0.1,0.2,0.3,0.4,0.6,0.6c0.3,0.1,0.5,0.3,0.8,0.3c0.3,0.1,0.6,0.1,0.9,0
	C89.6,19.1,89.8,19.1,90.1,19z"/>
<path fill="#82303A" d="M91.3,9l-0.6-1.2l0.6-0.3l0.6,1.2L91.3,9z M95.2,17.1L92,10.5l0.6-0.3l3.2,6.6L95.2,17.1z"/>
<path fill="#82303A" d="M100.9,14.3c-0.5,0.3-1.1,0.4-1.6,0.3c-0.6,0-1.1-0.2-1.6-0.5l0.7,1.3l-0.6,0.3l-4.7-9.1l0.6-0.3l2.1,4
	c0.1-0.6,0.2-1.2,0.5-1.7c0.3-0.5,0.7-0.9,1.2-1.2c0.5-0.2,0.9-0.3,1.4-0.3c0.5,0,0.9,0.1,1.3,0.3c0.4,0.2,0.8,0.5,1.1,0.8
	c0.3,0.3,0.6,0.7,0.8,1.1c0.2,0.4,0.4,0.9,0.4,1.4c0.1,0.5,0,1-0.1,1.4c-0.1,0.4-0.3,0.9-0.6,1.2C101.7,13.8,101.4,14.1,100.9,14.3z
	 M100.5,13.8c0.4-0.2,0.7-0.4,0.9-0.8c0.2-0.3,0.4-0.7,0.5-1c0.1-0.4,0.1-0.8,0.1-1.2c0-0.4-0.2-0.8-0.3-1.1c-0.2-0.4-0.4-0.7-0.7-1
	c-0.3-0.3-0.6-0.5-1-0.6c-0.4-0.2-0.7-0.2-1.1-0.2c-0.4,0-0.8,0.1-1.1,0.3c-0.3,0.1-0.5,0.3-0.7,0.5c-0.2,0.2-0.4,0.5-0.5,0.7
	c-0.1,0.3-0.2,0.5-0.3,0.8c-0.1,0.3-0.1,0.6-0.1,0.9l1.1,2.1c0.1,0.2,0.4,0.4,0.6,0.5c0.3,0.1,0.5,0.2,0.8,0.3c0.3,0,0.6,0,0.9,0
	C100,14,100.3,13.9,100.5,13.8z"/>
<path fill="#82303A" d="M101.4,2.5l0.7-0.3l3.5,8.1c0.1,0.2,0.3,0.4,0.5,0.5c0.2,0.1,0.4,0.1,0.7,0c0.1,0,0.2-0.1,0.3-0.2
	c0.1-0.1,0.2-0.2,0.3-0.3l0.4,0.5c-0.1,0.1-0.3,0.3-0.5,0.4c-0.2,0.1-0.4,0.2-0.5,0.3c-0.4,0.2-0.7,0.2-1,0
	c-0.3-0.1-0.5-0.4-0.7-0.7L101.4,2.5z"/>
<path fill="#82303A" d="M110.3,10.3c-0.3,0.1-0.6,0.1-1,0.1c-0.3,0-0.6-0.1-0.9-0.3c-0.3-0.1-0.5-0.3-0.7-0.6
	c-0.2-0.2-0.3-0.5-0.4-0.8c-0.1-0.3-0.1-0.6,0-0.9c0.1-0.3,0.2-0.6,0.4-0.8c0.2-0.3,0.5-0.5,0.8-0.7c0.3-0.2,0.7-0.4,1.1-0.5
	c0.4-0.1,0.8-0.2,1.2-0.2c0.4,0,0.8,0,1.1,0l-0.2-0.7c-0.2-0.7-0.5-1.2-1-1.4c-0.5-0.3-1-0.4-1.7-0.2c-0.4,0.1-0.7,0.3-1,0.5
	c-0.3,0.2-0.7,0.6-1,0.9l-0.4-0.4c0.7-0.9,1.5-1.4,2.3-1.6c0.8-0.2,1.6-0.1,2.2,0.2c0.6,0.4,1,1,1.3,1.9l0.9,3.5
	c0.1,0.2,0.2,0.3,0.4,0.3l0.2,0.6c0,0-0.1,0-0.1,0c0,0-0.1,0-0.1,0c-0.2,0-0.3,0-0.5-0.1C113.1,9.1,113,9,113,8.8l-0.2-0.6
	c-0.2,0.5-0.5,0.9-1,1.3C111.4,9.9,110.9,10.1,110.3,10.3z M110.3,9.7c0.5-0.1,1-0.4,1.4-0.7c0.4-0.3,0.7-0.7,0.8-1.1
	c0.1-0.2,0.1-0.4,0.1-0.6l-0.3-1.3c-0.8-0.1-1.5,0-2.2,0.2c-0.7,0.2-1.2,0.5-1.6,0.9C108,7.6,107.9,8,108,8.5
	c0.1,0.2,0.2,0.4,0.3,0.6c0.1,0.2,0.3,0.3,0.5,0.4c0.2,0.1,0.4,0.2,0.7,0.2C109.8,9.8,110,9.7,110.3,9.7z"/>
</svg>
