<?xml version="1.0" encoding="utf-8"?>
<!-- Generator: Adobe Illustrator 17.1.0, SVG Export Plug-In . SVG Version: 6.00 Build 0)  -->
<!DOCTYPE svg PUBLIC "-//W3C//DTD SVG 1.1//EN" "http://www.w3.org/Graphics/SVG/1.1/DTD/svg11.dtd">
<svg version="1.1" id="Layer_1" xmlns="http://www.w3.org/2000/svg" xmlns:xlink="http://www.w3.org/1999/xlink" x="0px" y="0px"
	 viewBox="0 0 1000 600" enable-background="new 0 0 1000 600" xml:space="preserve">
<path fill="#4E88B7" d="M262.3,323.3c-2.2,0.9-4.3,2.2-6.4,3.7c-2.1,1.5-4.1,3.2-6.3,5.1c-2.1,1.8-4.3,3.8-6.6,5.8
	c-2.3,2-4.7,4.1-7.3,6.1c-2.6,2-5.5,3.9-8.6,5.7c-3.1,1.8-6.5,3.4-10.3,4.8c-3.7,1.4-7.9,2.5-12.4,3.3s-9.5,1.2-15,1.2
	c-6.1,0-11.5-1.2-16.4-3.7c-4.9-2.4-9-5.7-12.5-9.9c-3.5-4.1-6.1-9-8-14.5c-1.9-5.5-2.8-11.3-2.8-17.3c0-4.1,0.4-8.6,1.3-13.3
	c0.9-4.7,2.2-9.6,3.9-14.5c1.7-4.9,3.7-9.8,6.2-14.7c2.4-4.9,5.2-9.6,8.2-14.1c3.1-4.5,6.4-8.6,10.1-12.5c3.7-3.8,7.6-7.2,11.8-10
	c4.2-2.8,8.6-5.1,13.2-6.7c4.6-1.6,9.4-2.4,14.4-2.4c3.2,0,6.5,0.6,9.8,1.7c3.3,1.1,6.3,2.9,8.9,5.3c2.6,2.4,4.8,5.4,6.5,9
	s2.5,7.9,2.5,12.9c0,3.3-0.5,6.7-1.6,10.1c-1.1,3.4-2.5,6.6-4.3,9.8c-1.8,3.1-4,6-6.5,8.8c-2.5,2.7-5.2,5.1-8,7.1
	c-2.9,2-5.9,3.6-8.9,4.7c-3.1,1.2-6.2,1.7-9.3,1.7c-4.1,0-7.1-0.5-9.2-1.6c-2-1.1-3-2.7-3-4.7c0-0.4,0-0.8,0-1.3c0-0.5,0-1,0-1.5
	c0-0.8,0-1.6,0.1-2.5c0.1-0.9,0.3-1.7,0.5-2.4c0.3-0.7,0.7-1.3,1.2-1.7c0.5-0.4,1.2-0.7,2.1-0.7c0.5,0,1,0.1,1.4,0.2
	c0.4,0.2,0.9,0.3,1.3,0.5c0.5,0.2,1.1,0.3,1.8,0.5c0.7,0.2,1.6,0.2,2.7,0.2c2.9,0,5.8-0.6,8.7-1.9c2.9-1.3,5.6-3,7.9-5.3
	c2.4-2.3,4.3-5,5.8-8.2c1.5-3.2,2.3-6.6,2.3-10.5c0-2-0.3-3.9-0.8-5.8s-1.4-3.4-2.6-4.8c-1.2-1.4-2.8-2.5-4.7-3.3
	c-1.9-0.8-4.2-1.2-7-1.2c-3.2,0-6.4,0.7-9.5,2.1c-3.1,1.4-6,3.3-8.8,5.8s-5.5,5.3-8,8.6c-2.5,3.3-4.9,6.9-7,10.7
	c-2.2,3.8-4.1,7.7-5.8,11.8c-1.7,4.1-3.2,8.2-4.4,12.3c-1.2,4.1-2.1,8-2.8,11.9c-0.7,3.8-1,7.4-1,10.6c0,4.6,0.6,8.6,1.7,12.1
	c1.1,3.4,2.8,6.3,4.9,8.6c2.1,2.3,4.7,4,7.7,5.1c3,1.1,6.5,1.7,10.3,1.7c4.8,0,9.2-0.6,13.3-1.8c4.1-1.2,8-2.7,11.7-4.7
	c3.7-1.9,7.3-4.1,10.8-6.5c3.5-2.4,7-4.9,10.4-7.3c3.5-2.4,7-4.8,10.6-7c3.6-2.2,7.4-4.1,11.5-5.6V323.3z"/>
<path fill="#4E88B7" d="M292.9,295.6c1.3,2.6,2.3,5.3,2.9,8.2c0.6,2.9,1,5.7,1,8.3c0,2.6-0.3,5.3-0.9,8c-0.6,2.7-1.4,5.3-2.5,7.8
	c-1.1,2.5-2.4,4.9-4,7.1c-1.6,2.2-3.4,4.1-5.4,5.7c-2,1.6-4.3,2.9-6.7,3.8c-2.4,0.9-5,1.4-7.7,1.4c-3.9,0-7.3-0.9-10.1-2.6
	c-2.8-1.7-5.1-4-6.9-6.8c-1.8-2.8-3.1-5.9-3.9-9.4c-0.8-3.5-1.2-7-1.2-10.6c0-4.9,0.7-9.5,2.2-13.8c1.5-4.3,3.6-8,6.4-11.2
	c2.8-3.2,6.1-5.7,10.1-7.5c4-1.8,8.5-2.7,13.5-2.7c4.3,0,8.3,0.7,12,2c3.7,1.3,7.2,3.1,10.5,5.3c3.3,2.2,6.3,4.8,9.1,7.6
	c2.8,2.9,5.4,5.8,7.8,8.9l-1.3,9.5c-1.2-1.6-2.8-3.4-4.9-5.2c-2.1-1.9-4.3-3.7-6.6-5.5c-2.3-1.8-4.6-3.5-6.8-5.1
	c-2.2-1.6-4.2-2.9-5.8-4L292.9,295.6z M272.1,333.1c1.5,0,3-0.8,4.4-2.3c1.4-1.5,2.7-3.5,3.8-5.9s1.9-5,2.6-7.8c0.6-2.8,1-5.6,1-8.2
	c0-2.1-0.2-4-0.5-5.8c-0.3-1.8-0.8-3.3-1.4-4.6c-0.6-1.3-1.4-2.3-2.4-3.1c-1-0.8-2.2-1.1-3.6-1.1c-1.8,0-3.6,0.8-5.2,2.4
	c-1.7,1.6-3.1,3.6-4.4,6c-1.3,2.4-2.2,5.1-3,8.1c-0.7,3-1.1,5.8-1.1,8.5c0,1.9,0.2,3.7,0.5,5.3c0.4,1.7,0.9,3.1,1.7,4.3
	c0.8,1.2,1.8,2.2,3,3C268.9,332.7,270.4,333.1,272.1,333.1z"/>
<path fill="#4E88B7" d="M351.2,331.7c-1.6,1.5-3.6,3.1-6,4.7c-2.4,1.7-5,3.2-7.8,4.6c-2.8,1.4-5.6,2.6-8.5,3.5
	c-2.9,0.9-5.6,1.4-8.2,1.4c-2.3,0-4.3-0.3-5.9-1c-1.6-0.6-2.9-1.6-3.9-2.7c-1-1.2-1.7-2.6-2.1-4.3c-0.4-1.7-0.6-3.5-0.6-5.6
	c0-2.8,0.3-6.1,1-9.9c0.6-3.7,1.4-7.6,2.4-11.6c0.9-4,1.9-8,3-12c1.1-4,2-7.7,2.8-11c0.3-1.2,0.9-2.2,1.9-3c0.9-0.8,2-1.5,3.2-2
	c1.2-0.5,2.4-0.9,3.7-1.1c1.3-0.2,2.4-0.4,3.5-0.4c1.9,0,3.2,0.3,3.8,1c0.7,0.7,1,1.6,1,2.8c0,1-0.2,2.4-0.7,4.3
	c-0.4,1.9-1,4-1.7,6.3c-0.7,2.4-1.4,4.9-2.2,7.6c-0.8,2.7-1.5,5.4-2.2,8.1c-0.7,2.7-1.2,5.4-1.7,7.9c-0.4,2.6-0.7,4.9-0.7,7
	c0,2,0.2,3.6,0.7,4.8c0.4,1.2,1.4,1.8,2.8,1.8c1.6,0,3.4-0.6,5.4-1.7c2-1.1,4-2.5,6-4.1c2-1.6,4-3.2,5.9-4.9
	c1.9-1.7,3.6-3.2,5.1-4.4V331.7z M321.2,262.5c0-1,0.2-2.2,0.7-3.5c0.4-1.3,1.2-2.5,2.2-3.7c1-1.1,2.4-2.1,4-2.9
	c1.7-0.8,3.8-1.2,6.3-1.2c1.6,0,3,0.2,4.4,0.5c1.4,0.4,2.6,0.9,3.6,1.6c1,0.7,1.9,1.7,2.5,2.9c0.6,1.2,0.9,2.6,0.9,4.3
	c0,1.5-0.2,3-0.7,4.4c-0.5,1.4-1.3,2.7-2.4,3.8c-1.1,1.1-2.4,2-4.1,2.7c-1.6,0.7-3.6,1-5.9,1c-3.9,0-6.9-0.9-8.7-2.8
	C322.1,268.1,321.2,265.6,321.2,262.5z"/>
<path fill="#4E88B7" d="M346.5,332c0-3,0.2-6.4,0.5-10.3c0.4-3.9,0.8-7.8,1.3-11.8c0.5-4,1.1-7.9,1.8-11.6c0.7-3.7,1.3-6.9,2-9.6
	c0.5-2.1,1.4-3.8,2.9-5.2c1.4-1.4,3.3-2.1,5.8-2.1c2.4,0,4.1,0.7,5,2.2c0.9,1.5,1.4,3.5,1.4,5.9c0,0.7-0.1,1.6-0.2,2.7
	c-0.1,1.1-0.3,2.4-0.5,3.8c-0.2,1.4-0.4,2.8-0.6,4.2c-0.2,1.5-0.4,2.8-0.6,4c-0.2,1.2-0.4,2.3-0.5,3.2c-0.1,0.9-0.2,1.5-0.2,1.9h1.3
	c0.3-0.5,0.7-1.3,1.3-2.4c0.6-1.1,1.3-2.4,2-3.8c0.8-1.4,1.6-2.9,2.5-4.5c0.9-1.6,1.7-3.1,2.5-4.6c0.8-1.5,1.5-2.7,2.1-3.9
	c0.6-1.1,1.1-2,1.4-2.5c1.4-2.4,3.1-4.1,4.9-5c1.8-0.9,3.9-1.3,6.1-1.3c2.2,0,4,0.9,5.3,2.8c1.3,1.9,2,4.5,2,7.8
	c0,0.5-0.1,1.3-0.3,2.5c-0.2,1.2-0.5,2.6-0.8,4.2c-0.3,1.6-0.7,3.4-1,5.3c-0.4,1.9-0.7,3.9-1,5.9c-0.3,2-0.6,4-0.8,6
	c-0.2,2-0.3,3.8-0.3,5.4c0,2.8,0.3,5.1,1,6.9c0.7,1.8,1.8,2.7,3.3,2.7c0.7,0,1.4-0.2,2.3-0.6c0.9-0.4,1.8-0.9,2.8-1.6
	c1-0.6,2-1.4,3.1-2.3c1.1-0.9,2.1-1.7,3.1-2.6c2.4-2.1,4.9-4.5,7.5-7.1l1.1,15.1l-3.4,2.6c-1.8,1.4-3.7,2.8-5.6,4.2
	c-1.9,1.4-3.9,2.6-6,3.7c-2.1,1.1-4.2,2-6.5,2.7c-2.2,0.7-4.6,1-7.1,1c-2.5,0-4.5-1.8-6.2-5.3s-2.5-8.8-2.5-15.6
	c0-2.7,0.2-5.6,0.5-8.7c0.4-3.1,0.8-6.5,1.3-10.1h-1.1l-17.6,35c-0.9,1.8-1.9,3.1-3,3.8c-1.1,0.7-2.4,1-3.9,1
	c-1.8,0-3.3-0.4-4.4-1.2c-1.1-0.8-2-1.8-2.6-3.2c-0.6-1.3-1-2.8-1.2-4.5C346.6,335.5,346.5,333.8,346.5,332z"/>
<path fill="#CE8452" d="M519,323.3c-2.2,0.9-4.3,2.2-6.4,3.7c-2.1,1.5-4.2,3.2-6.3,5.1c-2.1,1.8-4.3,3.8-6.6,5.8
	c-2.3,2-4.7,4.1-7.3,6.1c-2.6,2-5.5,3.9-8.6,5.7c-3.1,1.8-6.5,3.4-10.3,4.8c-3.7,1.4-7.9,2.5-12.4,3.3s-9.5,1.2-15,1.2
	c-6.1,0-11.5-1.2-16.4-3.7c-4.9-2.4-9-5.7-12.5-9.9c-3.5-4.1-6.1-9-8-14.5c-1.9-5.5-2.8-11.3-2.8-17.3c0-4.1,0.4-8.6,1.3-13.3
	c0.9-4.7,2.2-9.6,3.9-14.5c1.7-4.9,3.7-9.8,6.2-14.7c2.4-4.9,5.2-9.6,8.2-14.1c3.1-4.5,6.4-8.6,10.1-12.5c3.7-3.8,7.6-7.2,11.8-10
	c4.2-2.8,8.6-5.1,13.2-6.7c4.6-1.6,9.4-2.4,14.4-2.4c3.2,0,6.5,0.6,9.8,1.7c3.3,1.1,6.3,2.9,8.9,5.3c2.6,2.4,4.8,5.4,6.5,9
	s2.5,7.9,2.5,12.9c0,3.3-0.5,6.7-1.6,10.1c-1.1,3.4-2.5,6.6-4.3,9.8c-1.8,3.1-4,6-6.5,8.8c-2.5,2.7-5.2,5.1-8,7.1
	c-2.9,2-5.9,3.6-8.9,4.7c-3.1,1.2-6.2,1.7-9.3,1.7c-4.1,0-7.1-0.5-9.2-1.6c-2-1.1-3-2.7-3-4.7c0-0.4,0-0.8,0-1.3c0-0.5,0-1,0-1.5
	c0-0.8,0-1.6,0.1-2.5c0.1-0.9,0.3-1.7,0.5-2.4c0.3-0.7,0.7-1.3,1.2-1.7c0.5-0.4,1.2-0.7,2.1-0.7c0.5,0,1,0.1,1.4,0.2
	c0.4,0.2,0.9,0.3,1.3,0.5c0.5,0.2,1.1,0.3,1.8,0.5c0.7,0.2,1.6,0.2,2.7,0.2c2.9,0,5.8-0.6,8.7-1.9c2.9-1.3,5.6-3,7.9-5.3
	c2.4-2.3,4.3-5,5.8-8.2c1.5-3.2,2.3-6.6,2.3-10.5c0-2-0.3-3.9-0.8-5.8s-1.4-3.4-2.6-4.8c-1.2-1.4-2.8-2.5-4.7-3.3
	c-1.9-0.8-4.2-1.2-7-1.2c-3.2,0-6.4,0.7-9.5,2.1c-3.1,1.4-6,3.3-8.8,5.8c-2.8,2.4-5.5,5.3-8,8.6c-2.5,3.3-4.9,6.9-7,10.7
	c-2.2,3.8-4.1,7.7-5.8,11.8c-1.7,4.1-3.2,8.2-4.4,12.3c-1.2,4.1-2.1,8-2.8,11.9c-0.7,3.8-1,7.4-1,10.6c0,4.6,0.6,8.6,1.7,12.1
	c1.1,3.4,2.8,6.3,4.9,8.6c2.1,2.3,4.7,4,7.7,5.1c3,1.1,6.5,1.7,10.3,1.7c4.8,0,9.2-0.6,13.3-1.8c4.1-1.2,8-2.7,11.7-4.7
	c3.7-1.9,7.3-4.1,10.8-6.5c3.5-2.4,7-4.9,10.4-7.3c3.5-2.4,7-4.8,10.6-7c3.6-2.2,7.4-4.1,11.5-5.6V323.3z"/>
<path fill="#CE8452" d="M556.1,285.8c0,1.2-0.1,2.9-0.4,4.9c-0.3,2.1-0.6,4.4-1,6.9c-0.4,2.5-0.9,5.1-1.4,7.7
	c-0.5,2.6-1,5.1-1.4,7.4c-0.4,2.3-0.8,4.3-1,6c-0.3,1.7-0.4,2.9-0.4,3.6c0,1.3,0,2.4,0.1,3.5c0,1.1,0.2,2,0.4,2.8
	c0.2,0.8,0.6,1.4,1,1.8c0.5,0.4,1.2,0.6,2.1,0.6c1,0,2.2-0.2,3.6-0.7c1.4-0.5,2.9-1.2,4.5-2c1.6-0.8,3.2-1.8,4.9-2.8
	c1.7-1.1,3.2-2.2,4.7-3.3c1.5-1.2,2.9-2.3,4.1-3.5c1.2-1.1,2.2-2.2,3-3.2c0,1.5,0,2.8,0,4c0,1.2,0,2.4,0,3.5c0,1.1,0,2.2,0,3.4
	c0,1.2,0,2.5,0,3.9c-1,1-2.2,2-3.7,3.2c-1.5,1.1-3.1,2.2-4.8,3.4c-1.8,1.1-3.7,2.2-5.7,3.2c-2,1-4,1.9-6,2.7c-2,0.8-4,1.4-6,1.9
	c-2,0.5-3.8,0.7-5.5,0.7c-1.7,0-3.2-0.3-4.4-1c-1.2-0.7-2.3-1.6-3.1-2.8c-0.9-1.2-1.6-2.7-2.2-4.3s-1.1-3.6-1.6-5.6
	c-1.6,2.1-3.3,4-5.1,5.8c-1.8,1.8-3.6,3.3-5.5,4.6c-1.9,1.3-3.7,2.3-5.7,3.1c-1.9,0.7-3.8,1.1-5.6,1.1c-1.5,0-2.9-0.2-4.2-0.7
	c-1.3-0.5-2.5-1.3-3.5-2.5c-1-1.2-1.8-2.7-2.4-4.6c-0.6-1.9-0.9-4.3-0.9-7.1c0-3.5,0.4-7.8,1.2-13.2c0.8-5.3,1.9-11.4,3.1-18.3
	c0.1-0.7,0.3-1.6,0.5-2.7c0.2-1.1,0.6-2.4,1-3.7c0.4-1.3,1-2.7,1.6-4.1c0.6-1.4,1.4-2.6,2.2-3.8c0.9-1.1,1.9-2,3-2.8
	c1.1-0.7,2.4-1.1,3.9-1.1c2.4,0.1,4.1,0.4,5.1,0.9c1,0.5,1.5,1.2,1.5,1.9c-0.4,2.4-0.8,5-1.3,7.9c-0.5,2.9-1,5.9-1.4,8.8
	c-0.5,3-1,5.8-1.4,8.6c-0.4,2.8-0.9,5.3-1.2,7.5c-0.4,2.2-0.6,4-0.8,5.3s-0.3,2-0.3,2.1c0,0.8,0.1,1.6,0.2,2.3
	c0.2,0.7,0.4,1.4,0.7,2c0.3,0.6,0.7,1.1,1.2,1.4c0.5,0.4,1.1,0.5,1.7,0.5c1,0,2-0.3,3-0.8c1-0.5,2-1.3,2.9-2.2
	c0.9-1,1.7-2.2,2.5-3.6c0.7-1.4,1.3-3,1.6-4.8l6.7-34.2c0.2-1.1,1.1-2,2.7-2.7c1.6-0.7,3.4-1.1,5.4-1.1c2.3,0,4.1,0.4,5.4,1.2
	C555.4,283.5,556.1,284.6,556.1,285.8z"/>
<path fill="#CE8452" d="M585.5,346c-2.4,0-4.7-1.1-6.8-3.2c-2.1-2.1-3.9-5-5.4-8.6c-1.5-3.6-2.8-7.7-3.6-12.5
	c-0.9-4.7-1.3-9.7-1.3-14.9c0-4,0.3-8.3,0.9-13c0.6-4.7,1.4-9.5,2.6-14.5c1.1-5,2.5-10,4-15c1.5-5,3.3-9.8,5.2-14.5
	c2-4.6,4.1-8.9,6.4-13c2.3-4,4.7-7.5,7.2-10.5c2.5-3,5.1-5.3,7.9-7c2.7-1.7,5.5-2.6,8.3-2.6c1.9,0,3.5,0.4,4.8,1.3
	c1.3,0.9,2.2,2,3,3.5c0.7,1.4,1.2,3.1,1.5,4.9c0.3,1.8,0.4,3.7,0.4,5.6c0,4.2-0.5,8.5-1.4,12.9c-1,4.4-2.3,8.8-3.9,13.2
	c-1.6,4.4-3.5,8.8-5.7,13.3s-4.4,8.8-6.7,13.2c-2.3,4.4-4.7,8.7-7,12.9s-4.6,8.4-6.6,12.4c-0.2,0.4-0.5,1-0.7,1.7
	c-0.2,0.7-0.5,1.5-0.7,2.3c-0.2,0.8-0.4,1.7-0.7,2.7c-0.2,0.9-0.4,1.9-0.5,2.8v0.9c0,1.2,0.1,2.3,0.4,3.4c0.2,1.1,0.5,2.1,0.9,3
	c0.4,0.9,0.7,1.6,1.1,2.1c0.4,0.5,0.8,0.8,1.1,0.8c0.9,0,1.8-0.2,2.9-0.5c1.1-0.4,2.3-0.8,3.5-1.4c1.2-0.6,2.5-1.3,3.8-2.1
	c1.3-0.8,2.6-1.6,3.8-2.4c2.8-1.9,5.8-4.1,8.9-6.5l5.5,14.1c-4,2.9-7.9,5.4-11.8,7.7c-1.7,0.9-3.5,1.9-5.3,2.8
	c-1.8,0.9-3.6,1.7-5.5,2.5c-1.8,0.7-3.6,1.3-5.4,1.7C588.6,345.8,587,346,585.5,346z M585.5,292.2c2-3.6,4.2-7.6,6.4-12.1
	c2.3-4.5,4.4-9.1,6.4-13.9c2-4.8,3.8-9.5,5.2-14.2c1.5-4.7,2.4-9.1,2.8-13.2c0-1.3,0-2.4-0.1-3.3c-0.1-0.9-0.3-1.4-0.6-1.4
	c-1.3,0-2.7,0.8-4.2,2.5c-1.5,1.7-3,4-4.5,6.8c-1.5,2.9-2.9,6.2-4.3,10c-1.4,3.8-2.6,7.9-3.7,12.2s-1.9,8.7-2.6,13.3
	C585.8,283.5,585.5,287.9,585.5,292.2z"/>
<path fill="#CE8452" d="M665.1,331c-4.3,2.5-8.1,4.7-11.5,6.6c-3.4,1.9-6.4,3.5-9,4.7c-2.6,1.3-5,2.2-7,2.8c-2,0.6-3.9,0.9-5.6,0.9
	c-3.4,0-6.4-1-9-3.1c-2.6-2.1-4.8-5-6.5-8.9c-1.7-3.9-3.1-8.6-3.9-14.1c-0.9-5.5-1.3-11.7-1.3-18.6c0-2.7,0.1-5.6,0.3-8.6
	c0.2-3.1,0.5-6.1,0.9-9.1c-1.3-0.2-2.4-0.3-3.1-0.5c-0.7-0.2-1.5-0.3-2.4-0.5c-0.8-0.2-1.9-0.3-3.2-0.5c-1.3-0.2-3.1-0.4-5.6-0.7
	c-1.1-0.1-1.9-0.4-2.5-0.8c-0.6-0.4-1-0.8-1.3-1.3c-0.3-0.5-0.4-1.1-0.5-1.6c0-0.6-0.1-1-0.1-1.4c0-0.9,0.4-1.6,1.3-2.1s2-0.8,3.4-1
	c1.4-0.2,2.9-0.3,4.5-0.4c1.6,0,3.2,0,4.7,0c1.5,0,2.8,0.1,4,0.1c1.2,0,2,0,2.5-0.1c1.2-6.1,2.7-11.9,4.6-17.6
	c1.9-5.7,3.9-10.7,6.3-15.1c2.3-4.4,4.8-8,7.6-10.6c2.7-2.7,5.6-4,8.6-4c1.9,0,3.7,0.5,5.3,1.6c1.6,1.1,2.9,2.5,4.1,4.3
	c1.1,1.8,2,3.9,2.6,6.3c0.6,2.4,0.9,4.9,0.9,7.5c0,2.2-0.3,4.5-0.9,7c-0.6,2.4-1.5,4.9-2.6,7.5c-1.1,2.5-2.3,5.1-3.8,7.7
	c-1.5,2.6-3,5.2-4.6,7.7c0.4,0,1.1,0.1,2,0.1c0.9,0,2,0.1,3.3,0.1c1.2,0,2.6,0.1,4,0.2c1.4,0.1,2.8,0.1,4.2,0.2
	c1.3,0,2.6,0.1,3.8,0.1c1.2,0,2.1,0.1,2.9,0.1c0.9,0,1.5,0.5,2,1.3c0.4,0.9,0.6,1.9,0.6,3.2c0,1.6-0.4,2.8-1.3,3.8
	c-0.9,1-1.9,1.5-3,1.5H635c-1.3,1.8-2.6,3.6-3.9,5.3c-1.3,1.7-2.5,3.3-3.7,4.7c-0.2,2.8-0.3,5.5-0.5,8.2c0,1.2-0.1,2.4-0.1,3.6
	c0,1.2-0.1,2.5-0.1,3.7c0,1.2-0.1,2.4-0.1,3.5c0,1.1,0,2.2,0,3.1c0,2.4,0.2,4.5,0.7,6.1c0.4,1.7,1.1,3,2,4.1
	c0.9,1.1,1.9,1.8,3.1,2.3c1.2,0.5,2.6,0.7,4.1,0.7c0.9,0,2.1-0.2,3.5-0.7c1.4-0.4,3-1.1,4.6-1.9c1.7-0.8,3.5-1.7,5.3-2.8
	c1.9-1.1,3.7-2.3,5.5-3.5c1.8-1.3,3.6-2.6,5.2-4c1.7-1.4,3.2-2.9,4.5-4.3V331z M643.6,245.8c0-0.5,0-1-0.1-1.6
	c-0.1-0.6-0.2-1.2-0.4-1.7c-0.2-0.5-0.6-1-1-1.3c-0.5-0.4-1.1-0.5-2-0.5c-1.2,0-2.3,1-3.5,3.1c-1.2,2.1-2.3,4.7-3.4,7.9
	c-1.1,3.2-2.1,6.7-3.1,10.6c-1,3.9-1.9,7.6-2.7,11.2c0.7,0.1,1.3,0.2,2,0.2c0.7,0.1,1.4,0.1,2.1,0.2c1.3-2.3,2.7-4.8,4.2-7.4
	c1.5-2.7,2.8-5.3,3.9-7.9c1.2-2.6,2.1-5,2.9-7.2C643.2,249.1,643.6,247.2,643.6,245.8z"/>
<path fill="#CE8452" d="M713.4,285.8c0,1.2-0.1,2.9-0.4,4.9c-0.3,2.1-0.6,4.4-1,6.9c-0.4,2.5-0.9,5.1-1.4,7.7
	c-0.5,2.6-1,5.1-1.4,7.4c-0.4,2.3-0.8,4.3-1,6c-0.3,1.7-0.4,2.9-0.4,3.6c0,1.3,0,2.4,0.1,3.5c0,1.1,0.2,2,0.4,2.8
	c0.2,0.8,0.6,1.4,1,1.8c0.5,0.4,1.2,0.6,2.1,0.6c1,0,2.2-0.2,3.6-0.7c1.4-0.5,2.9-1.2,4.5-2c1.6-0.8,3.2-1.8,4.9-2.8
	c1.7-1.1,3.2-2.2,4.7-3.3c1.5-1.2,2.9-2.3,4.1-3.5c1.2-1.1,2.2-2.2,3-3.2c0,1.5,0,2.8,0,4c0,1.2,0,2.4,0,3.5c0,1.1,0,2.2,0,3.4
	c0,1.2,0,2.5,0,3.9c-1,1-2.2,2-3.7,3.2c-1.5,1.1-3.1,2.2-4.8,3.4c-1.8,1.1-3.7,2.2-5.7,3.2c-2,1-4,1.9-6,2.7c-2,0.8-4,1.4-6,1.9
	c-2,0.5-3.8,0.7-5.5,0.7c-1.7,0-3.2-0.3-4.4-1c-1.2-0.7-2.3-1.6-3.1-2.8c-0.9-1.2-1.6-2.7-2.2-4.3c-0.6-1.7-1.1-3.6-1.6-5.6
	c-1.6,2.1-3.3,4-5.1,5.8c-1.8,1.8-3.6,3.3-5.5,4.6c-1.9,1.3-3.7,2.3-5.7,3.1c-1.9,0.7-3.8,1.1-5.6,1.1c-1.5,0-2.9-0.2-4.2-0.7
	c-1.3-0.5-2.5-1.3-3.5-2.5c-1-1.2-1.8-2.7-2.4-4.6c-0.6-1.9-0.9-4.3-0.9-7.1c0-3.5,0.4-7.8,1.2-13.2c0.8-5.3,1.9-11.4,3.1-18.3
	c0.1-0.7,0.3-1.6,0.5-2.7c0.2-1.1,0.6-2.4,1-3.7c0.4-1.3,1-2.7,1.6-4.1c0.6-1.4,1.4-2.6,2.2-3.8c0.9-1.1,1.9-2,3-2.8
	c1.1-0.7,2.4-1.1,3.9-1.1c2.4,0.1,4.1,0.4,5.1,0.9c1,0.5,1.5,1.2,1.5,1.9c-0.4,2.4-0.8,5-1.3,7.9c-0.5,2.9-1,5.9-1.4,8.8
	c-0.5,3-1,5.8-1.4,8.6c-0.4,2.8-0.9,5.3-1.2,7.5c-0.4,2.2-0.6,4-0.8,5.3s-0.3,2-0.3,2.1c0,0.8,0.1,1.6,0.2,2.3
	c0.2,0.7,0.4,1.4,0.7,2c0.3,0.6,0.7,1.1,1.2,1.4c0.5,0.4,1.1,0.5,1.7,0.5c1,0,2-0.3,3-0.8c1-0.5,2-1.3,2.9-2.2
	c0.9-1,1.7-2.2,2.5-3.6c0.7-1.4,1.3-3,1.6-4.8l6.7-34.2c0.2-1.1,1.1-2,2.7-2.7c1.6-0.7,3.4-1.1,5.4-1.1c2.3,0,4.1,0.4,5.4,1.2
	C712.7,283.5,713.4,284.6,713.4,285.8z"/>
<path fill="#CE8452" d="M727.8,332c0-2,0.1-4.3,0.3-6.9c0.2-2.6,0.5-5.4,0.9-8.3c0.4-2.9,0.8-5.9,1.3-8.9c0.5-3,1.1-5.9,1.6-8.6
	c0.6-2.7,1.2-5.2,1.7-7.5c0.6-2.3,1.2-4.2,1.7-5.7c0.4-1,0.7-1.8,1.1-2.4c0.4-0.6,0.8-1,1.2-1.4c0.5-0.3,1.1-0.6,1.7-0.7
	c0.7-0.1,1.6-0.2,2.6-0.2c1.2,0,2.1,0.1,2.7,0.2c0.6,0.1,1.1,0.4,1.4,0.8c0.3,0.4,0.5,1,0.6,1.9c0.1,0.8,0.1,1.9,0.1,3.3
	c0,1.7,0,3.7,0,6c0,2.4,0,4.7,0.1,7h0.7c0.9-1.8,1.9-3.8,3-6c1.1-2.2,2.4-4.3,3.9-6.2c1.5-1.9,3.2-3.6,5-4.9c1.9-1.3,4.1-2,6.5-2
	c0.9,0,1.7,0.1,2.5,0.4c0.8,0.3,1.5,0.7,2.1,1.2c0.6,0.5,1.1,1.2,1.4,2c0.4,0.8,0.5,1.7,0.5,2.7c0,0.8-0.1,1.8-0.3,3.2
	c-0.2,1.4-0.5,2.8-0.7,4.3c-0.3,1.5-0.5,3-0.7,4.4c-0.2,1.4-0.3,2.6-0.3,3.5c0,1.6,0.2,3,0.5,4c0.3,1.1,0.7,1.9,1.2,2.6
	c0.5,0.7,1.1,1.1,1.7,1.4c0.6,0.3,1.3,0.4,2.1,0.4c2,0,4.1-0.4,6.3-1.3c2.2-0.9,4.1-1.9,5.9-3c2.1-1.3,4.2-2.8,6.2-4.4l-1,15.7
	c-1.2,0.8-2.5,1.6-4,2.6c-1.5,0.9-3.1,1.8-4.7,2.7c-1.7,0.8-3.4,1.5-5.2,2.1c-1.8,0.6-3.7,0.8-5.6,0.8c-3.4,0-6.1-0.7-8.1-2.1
	c-2.1-1.4-3.7-3.2-4.9-5.4c-1.2-2.2-2.1-4.7-2.7-7.5c-0.6-2.8-1.1-5.6-1.4-8.4H756l-12,33.6c-0.6,1.7-1.2,3.2-1.8,4.3
	c-0.6,1.1-1.1,2.1-1.7,2.8c-0.6,0.7-1.2,1.2-1.9,1.5c-0.7,0.3-1.4,0.4-2.2,0.4c-1.8,0-3.3-0.4-4.4-1.2c-1.1-0.8-2-1.8-2.6-3.2
	c-0.6-1.3-1-2.8-1.2-4.5S727.8,333.8,727.8,332z"/>
<path fill="#CE8452" d="M808.6,346c-4.2,0-7.9-0.8-11.1-2.3c-3.2-1.5-5.8-3.6-7.9-6.2c-2.1-2.6-3.7-5.6-4.7-8.9
	c-1.1-3.4-1.6-6.9-1.6-10.7c0-2.5,0.2-5.2,0.7-8c0.5-2.8,1.2-5.6,2.3-8.2c1-2.7,2.3-5.3,3.8-7.7c1.5-2.4,3.3-4.6,5.3-6.5
	c2-1.9,4.3-3.3,6.9-4.4c2.5-1.1,5.3-1.6,8.4-1.6c2.5,0,4.8,0.4,7,1.2c2.2,0.8,4,1.9,5.6,3.4c1.6,1.5,2.8,3.2,3.7,5.3
	c0.9,2.1,1.3,4.4,1.3,6.9c0,2.8-0.7,5.6-2.1,8.3c-1.4,2.8-3.3,5.4-5.7,7.9c-2.4,2.5-5.3,4.7-8.6,6.6c-3.3,1.9-7,3.4-10.9,4.5
	c0.7,1.2,1.3,2.2,2,3c0.6,0.8,1.3,1.4,2,1.9c0.7,0.4,1.4,0.8,2.1,0.9c0.7,0.2,1.5,0.3,2.4,0.3c2.7,0,5.5-0.5,8.5-1.6
	c3-1.1,5.9-2.4,8.7-4c2.8-1.6,5.5-3.4,8-5.3c2.5-1.9,4.6-3.7,6.4-5.4l8.7,9c-3.9,4.1-8.1,7.7-12.6,10.8c-1.9,1.3-4,2.7-6.2,4
	c-2.2,1.3-4.6,2.5-7,3.5c-2.4,1-5,1.8-7.6,2.4C814,345.7,811.3,346,808.6,346z M799.7,314.4c1.6,0,3.4-0.4,5.3-1.2
	c1.9-0.8,3.7-1.9,5.3-3.2c1.6-1.3,3-2.7,4.1-4.2c1.1-1.5,1.7-3,1.7-4.4c0-2-0.4-3.7-1.1-5c-0.7-1.3-1.6-2-2.7-2
	c-1.9,0-3.6,0.4-4.9,1.1c-1.4,0.7-2.5,1.6-3.4,2.8c-0.9,1.1-1.7,2.4-2.2,3.9c-0.6,1.5-1,2.9-1.3,4.4c-0.3,1.5-0.5,2.9-0.6,4.3
	C799.7,312.2,799.7,313.4,799.7,314.4z"/>
</svg>
