<?xml version="1.0" encoding="utf-8"?>
<!-- Generator: Adobe Illustrator 17.1.0, SVG Export Plug-In . SVG Version: 6.00 Build 0)  -->
<!DOCTYPE svg PUBLIC "-//W3C//DTD SVG 1.1//EN" "http://www.w3.org/Graphics/SVG/1.1/DTD/svg11.dtd">
<svg version="1.1" id="Layer_1" xmlns="http://www.w3.org/2000/svg" xmlns:xlink="http://www.w3.org/1999/xlink" x="0px" y="0px"
	 viewBox="0 0 65.6 61.1" enable-background="new 0 0 65.6 61.1" xml:space="preserve">
<g>
	<path class="email" fill="#4D4D4D" d="M2.7,23.5C1.2,24,0.2,25.3,0,26.8c-0.2,1.5,0.4,3,1.7,3.9l13.4,9.7L62.7,3L20.6,44.4l18.3,13.3
		c1.2,0.8,2.7,1.1,4.1,0.7c1.4-0.4,2.5-1.5,3-2.8L65.5,2c0.2-0.5,0.1-1.2-0.4-1.6c-0.4-0.4-1-0.5-1.6-0.3L2.7,23.5z"/>
	<path class="email" fill="#4D4D4D" d="M11.9,43.6l0.1,0.6l2.6,14.2c0.2,1.1,0.9,1.9,1.9,2.4c1,0.4,2.1,0.3,3-0.2c3.6-2.3,8.4-5.4,8.2-5.6
		L11.9,43.6z"/>
</g>
</svg>
