<?xml version="1.0" encoding="utf-8"?>
<!-- Generator: Adobe Illustrator 17.1.0, SVG Export Plug-In . SVG Version: 6.00 Build 0)  -->
<!DOCTYPE svg PUBLIC "-//W3C//DTD SVG 1.1//EN" "http://www.w3.org/Graphics/SVG/1.1/DTD/svg11.dtd">
<svg version="1.1" id="Layer_1" xmlns="http://www.w3.org/2000/svg" xmlns:xlink="http://www.w3.org/1999/xlink" x="0px" y="0px"
	 viewBox="0 0 69.2 66.2" enable-background="new 0 0 69.2 66.2" xml:space="preserve">
<path id="linkedin" fill="#4D4D4D" d="M69.2,40.6v25.6H54.4V42.3c0-6-2.1-10.1-7.5-10.1c-4.1,0-6.5,2.8-7.6,5.4
	c-0.4,1-0.5,2.3-0.5,3.6v24.9H23.9c0,0,0.2-40.5,0-44.6h14.8v6.3c0,0-0.1,0.1-0.1,0.1h0.1v-0.1c2-3,5.5-7.4,13.4-7.4
	C61.9,20.5,69.2,26.9,69.2,40.6z M8.4,0C3.3,0,0,3.3,0,7.7c0,4.3,3.2,7.7,8.2,7.7h0.1c5.2,0,8.4-3.4,8.4-7.7C16.6,3.3,13.5,0,8.4,0z
	 M0.9,66.2h14.8V21.5H0.9V66.2z"/>
</svg>
